<?xml version="1.0" encoding="UTF-8"?>
<!DOCTYPE svg PUBLIC "-//W3C//DTD SVG 1.1//EN" "http://www.w3.org/Graphics/SVG/1.1/DTD/svg11.dtd">
<!-- Creator: CorelDRAW 2019 (64 Bit) -->
<svg xmlns="http://www.w3.org/2000/svg" xml:space="preserve" width="594mm" height="841mm" version="1.1" style="shape-rendering:geometricPrecision; text-rendering:geometricPrecision; image-rendering:optimizeQuality; fill-rule:evenodd; clip-rule:evenodd"
viewBox="0 0 59400 84100"
 xmlns:xlink="http://www.w3.org/1999/xlink">
 <defs>
  <style type="text/css">
   <![CDATA[
    .fil4 {fill:#545454}
    .fil5 {fill:#555555}
    .fil8 {fill:#565657}
    .fil7 {fill:#575757}
    .fil6 {fill:#5A5A5A}
    .fil9 {fill:#636464}
    .fil10 {fill:#656566}
    .fil11 {fill:#68686A}
    .fil12 {fill:#727374}
    .fil13 {fill:#A1A2A6}
    .fil2 {fill:#D8DBE1}
    .fil3 {fill:#DEE2EA}
    .fil1 {fill:#E4E6EB}
    .fil0 {fill:#FDFDFF}
   ]]>
  </style>
 </defs>
 <g id="Camada_x0020_1">
  <metadata id="CorelCorpID_0Corel-Layer"/>
  <path class="fil0" d="M27741.36 77763.74c91.73,-29.43 2504.84,-12.06 2821.32,-12.06 859.15,0 795.63,-97.02 795.63,630.07 0,237.23 0,474.46 0,711.7 0,228.1 50.9,491.27 -134.66,554.97 -130.73,44.87 -2461.58,12.07 -2813.21,12.07 -878.34,0 -807.24,94.43 -807.24,-620.42 0,-237.23 0,-474.46 0,-711.69 0,-217.19 -57.48,-501.89 138.16,-564.64zm-2646.14 -4470.56c0,-167.41 77.34,-242.69 238.04,-242.69l3041.6 0c158,0 235.34,77.54 235.34,242.69l0 1192.08c0,165.62 -71.17,236.85 -235.34,236.85l-3041.6 0c-163.08,0 -238.04,-73.67 -238.04,-236.85l0 -1192.08zm5967.74 0c0,-159.8 65.28,-239.72 228.99,-239.72l2383.47 0c171.9,0 249.21,56.44 249.21,239.72l0 1192.08c0,160.29 -70.49,236.4 -231.42,236.4l-2401.26 0c-159.82,0 -228.99,-81.14 -228.99,-236.4l0 -1192.08zm-492.52 -2164.98c114.65,-34.9 1082.4,-11.81 1290.69,-11.81 176.35,0 1847.65,-13.91 1937.47,6.8 191.33,44.1 145.93,286.6 145.93,497.52 0,213.5 0,427.01 0,640.52 0,660.72 102.19,523.35 -1425.27,523.35 -175.28,0 -1850.3,13.12 -1937.97,-5.28 -193.58,-40.62 -151.55,-295.67 -151.55,-500.29 0,-213.5 0,-427 0,-640.52 0,-212.97 -51.47,-451.77 140.7,-510.29zm-5474.74 225.62c0,-161.43 75.25,-237.43 237.56,-237.43l3041.6 0c162.22,0 234.92,75.8 234.92,237.43l0 1192.08c0,161.16 -71.47,238.68 -230.47,238.68l-3046.05 0c-165.66,0 -237.56,-75.55 -237.56,-238.68l0 -1192.08zm7115.78 -61304.64l2080 4.13 0.09 770.7 -2083.97 -8.44 3.88 -766.39zm-7424.1 -0.2l2074.18 1.98 0.2 773.03 -2083.65 0.16 9.27 -775.17zm973.63 -2765.01c0,-161.34 65.56,-238.68 234.82,-238.68l1436.31 0c164.05,0 236.86,74.47 236.86,238.68l0 1601.31c0,170.88 -67.95,246.47 -239.08,246.47l-1438.53 0c-159.6,0 -230.38,-83.57 -230.38,-246.47l0 -1601.31zm5110.68 249.1c0,-156.6 78.68,-234.67 242.39,-234.67l1849.86 0c173.7,0 234.24,78.29 234.24,252.45l0 1245.46c0,158.14 -78.79,231.85 -234.24,231.85l-1849.86 0c-177.66,0 -242.39,-76.38 -242.39,-249.63l0 -1245.46zm687.06 -3278.69c-149.16,0 -162.62,-70.34 -225.21,-180.62 -72.06,-126.96 -59.35,-198.42 -40.63,-348.85 16.92,-136.04 78.29,-593.17 122.81,-674.67 83.35,5.34 87.11,46.74 135.03,114.6l490.51 701.05c60.9,86.87 165.72,178.89 138.53,322.24 -50.2,107.92 -419.51,66.25 -621.04,66.25zm-4553.5 0c-367.77,0 -43.48,-355.62 81.4,-536.18 131.41,-190.01 259.47,-367.96 390.41,-552.46 179.14,-252.4 157.61,-114.97 245.72,468.54 19.8,131.15 59.21,287.55 -1.34,397.64 -154.59,281.04 -126.43,222.46 -716.19,222.46zm2652.3 -2289.01c86.11,-90.37 382.2,137.07 543.41,235.62 177.19,108.32 336.55,202.89 522.67,313.69 196.18,116.78 449.73,222.77 467.54,391.5 12.25,116.1 -1.39,304.43 -3.04,427.91 -2.23,166.95 29.32,236.43 -72.66,335.87 -144.44,14.02 -309.11,-123.34 -415.89,-187.1l-749.46 -442.57c-62.63,-38.22 -123.85,-71.48 -190.53,-112.34 -76.28,-46.75 -111.01,-61.08 -111.01,-180.99 -0.34,-254.46 -9.87,-530.8 8.97,-781.59zm-1825.74 977.3c0,-195.43 166.13,-247.32 303.36,-328.84 140.01,-83.18 1106.7,-703.37 1182.58,-679.97l51.02 34.4 4.88 760.89c0,131.84 -15.12,141.95 -108.57,197.14l-949.89 561.88c-519.81,306.08 -483.38,306.54 -483.38,-545.5zm-4259.56 32951.31c20.47,-36.27 232.28,-123.53 297.17,-141.57l0.02 14481.94 -297.1 0c-21.87,3258.71 -0.09,6526.03 -0.09,9785.82l0 17187.3c0,529.81 -22.78,2017.73 12,2437.68 66.59,804 345.59,1477.21 766.15,1997.74 112.54,139.31 317.55,356.48 447.46,459.52 33.49,26.55 44.91,45.16 83.79,75.44 35.27,27.48 50.16,45.47 88.24,72.03 551.79,384.93 747.26,505.19 1379.14,750.64 1777.77,690.58 4530.96,683.01 6315.7,5.22 371.32,-141.02 893.79,-384.3 1218.99,-627.84l334.34 -268.96c169.07,-141.44 118.1,-117.23 245.27,-234.09 136.42,-125.37 77.33,-85.73 145.86,-155.35 42.96,-43.64 34.41,-32.85 67.36,-76.26 23.99,-31.62 49.5,-62.16 70.71,-88.03 193.8,-236.14 368.12,-598.79 481.31,-885.55 274.62,-695.77 225.85,-1473.53 225.85,-2216.74 0,-9404.35 20.93,-18817.03 -0.1,-28218.38l-296.81 -2 1.84 -14473.87c59.35,9.13 276.35,100.35 294.87,135.31 16.56,-3438.22 0.2,-6880.86 0.2,-10319.59l0 -12899.36c0,-949.9 -12.24,-1458.52 -160.22,-2401.55 -275.74,-1757.07 -710.59,-3004.76 -1287.82,-4532.71 -57.68,-152.68 -121.49,-303.56 -190.46,-451.66 -64.74,-139.05 -131.88,-296.24 -200.61,-438.66 -354.03,-733.64 -490.02,-997.07 -902.2,-1676.8l-666.59 -951.51c-218.85,-287.6 -683.2,-777.32 -951.13,-985.89 -455.91,-354.89 -961.69,-661.14 -1582.15,-661.59 -564.01,-0.42 -1007.42,251.19 -1420.66,539.23 -160.98,112.21 -215.43,171.9 -346.73,291.83 -60.42,55.19 -118.82,103.48 -180.88,157.97 -112.42,98.66 -282.86,316.04 -380.59,418.78 -131.54,138.32 -240.84,288.72 -357.91,441.06 -568.24,739.47 -1255.63,2010.08 -1628.28,2889.6 -123.15,290.66 -249.75,607.51 -371.26,911.14 -126.57,316.28 -216.21,634.16 -337.34,957.12 -274.34,731.53 -653.03,2415.34 -760.29,3104.43 -129.34,830.91 -157.05,1550.17 -157.05,2406.99l0 23201.17z"/>
  <path class="fil1" d="M23572.25 35893.98l0 -23201.17c0,-856.82 27.71,-1576.08 157.05,-2406.99 107.26,-689.09 485.95,-2372.9 760.29,-3104.43 121.13,-322.96 210.77,-640.84 337.34,-957.12 121.51,-303.63 248.11,-620.48 371.26,-911.14 372.65,-879.52 1060.04,-2150.13 1628.28,-2889.6 117.07,-152.34 226.37,-302.74 357.91,-441.06 97.73,-102.74 268.17,-320.12 380.59,-418.78 62.06,-54.49 120.46,-102.78 180.88,-157.97 131.3,-119.93 185.75,-179.62 346.73,-291.83 413.24,-288.04 856.65,-539.65 1420.66,-539.23 620.46,0.45 1126.24,306.7 1582.15,661.59 267.93,208.57 732.28,698.29 951.13,985.89l666.59 951.51c412.18,679.73 548.17,943.16 902.2,1676.8 68.73,142.42 135.87,299.61 200.61,438.66 68.97,148.1 132.78,298.98 190.46,451.66 577.23,1527.95 1012.08,2775.64 1287.82,4532.71 147.98,943.03 160.22,1451.65 160.22,2401.55l0 12899.36c0,3438.73 16.36,6881.37 -0.2,10319.59 -18.52,-34.96 -235.52,-126.18 -294.87,-135.31l-1.84 14473.87 296.81 2c21.03,9401.35 0.1,18814.03 0.1,28218.38 0,743.21 48.77,1520.97 -225.85,2216.74 -113.19,286.76 -287.51,649.41 -481.31,885.55 -21.21,25.87 -46.72,56.41 -70.71,88.03 -32.95,43.41 -24.4,32.62 -67.36,76.26 -68.53,69.62 -9.44,29.98 -145.86,155.35 -127.17,116.86 -76.2,92.65 -245.27,234.09l-334.34 268.96c-325.2,243.54 -847.67,486.82 -1218.99,627.84 -1784.74,677.79 -4537.93,685.36 -6315.7,-5.22 -631.88,-245.45 -827.35,-365.71 -1379.14,-750.64 -38.08,-26.56 -52.97,-44.55 -88.24,-72.03 -38.88,-30.28 -50.3,-48.89 -83.79,-75.44 -129.91,-103.04 -334.92,-320.21 -447.46,-459.52 -420.56,-520.53 -699.56,-1193.74 -766.15,-1997.74 -34.78,-419.95 -12,-1907.87 -12,-2437.68l0 -17187.3c0,-3259.79 -21.78,-6527.11 0.09,-9785.82l297.1 0 -0.02 -14481.94c-64.89,18.04 -276.7,105.3 -297.17,141.57zm6092.93 47700.9l-279.02 0c-1597.56,-20.88 -3199.21,-398.21 -4297.74,-1159.22 -109.9,-76.12 -443.98,-337.03 -505.13,-420.46 -39.74,-54.22 -39.99,-36.09 -85.92,-75.38l-275.9 -329.64c-403.28,-544.92 -647.35,-1184.92 -707.43,-1886.92 -34.2,-399.46 -20.66,-815.04 -20.66,-1216.96l0 -27026.4c0,-389.46 20.87,-840.13 -2.7,-1222.03l-2477.43 668.39c-197.26,43.16 -686.93,211.19 -838.25,217.84l0 -12566.73 2704.24 -2149.82c67.37,-62.05 134.68,-102.79 208.62,-164.08 72.41,-60.02 131.78,-110.05 208.83,-166.5 41.6,-30.5 181.29,-131.25 196.56,-167.49l0.13 -23201.08c0,-856.5 29.44,-1600.64 155.9,-2423.77 186.77,-1215.71 412.63,-1983.83 758.54,-3109.31 94.52,-307.54 214.66,-673.92 334.06,-961.65 63.33,-152.6 115.87,-315.19 181.62,-460.19 61.53,-135.71 133.9,-308.42 188.21,-453.69 165.46,-442.62 852.43,-1763.32 1096.02,-2122.46l871.97 -1229.53c141.21,-158.63 419.27,-467.95 560.47,-578.44l255.81 -224.9c149.3,-97.97 247.9,-203 472.54,-329.49 270.79,-152.49 587.35,-286.29 958.78,-329.85l370.94 0c522.35,59.62 948.33,290.33 1330.48,582.84l134.12 97.53c287.47,223.05 523.54,513.65 774.74,773.46l351.09 450.3c94.03,129.69 182.14,249.33 271.93,386.5 1063.89,1625.35 1853.78,3512.02 2355.95,5384.92 452.84,1688.93 617.32,2787.92 617.32,4547.73l0 23258.37c170.06,111.11 315.48,246.56 452.32,354.04 74.52,58.54 148.68,118.87 228.91,179.98 73.82,56.22 165.84,121.41 225.1,183.87 134.51,141.75 516.95,402.97 687.13,539.41l1845.71 1464.44c39.49,30.33 75.93,62.87 116.24,96.65 84.43,70.72 75.5,71.6 135.72,86.94l0 12378.72 -930.01 -249.25c-85.06,-26.95 -150.08,-37.65 -238.33,-61.81 -420.08,-115.04 -1204.74,-349.69 -1606.74,-442.67 -308.99,-71.47 -610.58,-167.68 -914.13,-245.8 -16.03,404.03 -1.92,836.99 -1.92,1244.18l0 23361.21c0,539.24 30.21,4456.02 -25.58,4893.45 -91.25,715.53 -307.72,1324.79 -668.34,1786.27l-431.03 494.85c-64.69,76.68 -97.59,78.53 -162.57,140.44l-176.61 143.68c-245.64,180.81 -255.36,194.33 -547.51,360.27 -1011.67,574.61 -2420.75,880.74 -3857.05,899.24z"/>
  <path class="fil2" d="M29630.49 78267.11l164.83 -40.81c7.3,149.57 5,298.04 3.94,440.23 -1.58,210.06 12.06,94.67 33.81,179.52 0.1,0.39 37.9,366.25 -38.15,390.46 -189.55,60.35 -63.15,-459.86 -64.55,-521.14l-91.13 -11.02 -8.75 -437.24zm-544.15 -24.07c106.77,45.33 -27.21,206.52 86.34,279.17 9.26,-86.49 -14.99,-211.52 20.39,-280.93l35.6 0.14c36.09,70.66 9.49,192.06 21.2,277.33 98.72,-70.87 -3.49,-184.81 67.71,-277.63 55.68,22.31 41.6,-0.47 44.84,85.97 6.16,164.9 3.23,219.74 -118.68,262.08 0,361.39 36.81,141.52 36,343.73 -0.36,90.04 41.16,305.49 -68.93,306.66 -112.06,1.21 -70.57,-216.84 -70.94,-306.57 -0.89,-217.54 37.97,32.92 37.97,-346.33 -202.72,-54.63 -106.29,-327.05 -91.5,-343.62zm-1344.98 -479.3c-195.64,62.75 -138.16,347.45 -138.16,564.64 0,237.23 0,474.46 0,711.69 0,714.85 -71.1,620.42 807.24,620.42 351.63,0 2682.48,32.8 2813.21,-12.07 185.56,-63.7 134.66,-326.87 134.66,-554.97 0,-237.24 0,-474.47 0,-711.7 0,-727.09 63.52,-630.07 -795.63,-630.07 -316.48,0 -2729.59,-17.37 -2821.32,12.06z"/>
  <path class="fil2" d="M27321.05 74326.44c13.24,-77 -6.02,-42.9 39.94,-82.01 42.28,31.38 23.59,-17.33 34.69,45.15 9.64,54.3 -14.02,34.72 -16.28,38.73 -59.22,209.79 -392.17,198.23 -358.81,-119.1l49.45 -56.04c36.9,82.63 -11.82,60.66 5.22,171.95 63.03,110.47 201.71,126.81 245.79,1.32zm-707.11 -268.71c-48.49,-30.92 -29.58,-70.92 -29.02,-141.7 0.43,-53.37 0.09,-106.87 0.09,-160.26 0,-135.41 -22.9,-269.32 28.93,-304.73 15.21,20.49 19.86,4.04 24.68,72.22l-1.4 392.72c1.82,194.04 -2.56,115.1 -23.28,141.75zm543.49 133.35c-132.3,-27.69 -81.15,-279.34 141.33,-261.28l44.51 213.96 130.77 14.22c8.57,13.16 3.53,-4.98 21.24,36.24 2.15,4.99 7.07,20.96 8.87,26.44 4.67,14.19 10.61,38.45 15.29,54.54 37.17,127.6 8.86,94.37 1.64,109.58 -72.56,-17.77 -69.82,-86.53 -90.88,-166.31l-201.12 -13.82 -45.96 -181.35c-88.01,68.22 1.94,67.37 -25.69,167.78zm-467.45 -257.38c8.82,-96.88 42.01,-228 101.76,-286.27l92.9 2.23c59.11,73.14 84.02,185.45 96.6,289.66l-88.5 5.01 -2.99 105.13 -111.03 2.82 -1.88 -106.52 -86.86 -12.06zm-429.01 -124.55c0,-231.75 230.31,-219.55 230.31,-17.78 0,124.61 -39.47,146.09 -46.11,132.79l-14.55 130.86 -110.94 -4.99 -36.67 -144.39c-29.58,-29.85 -22.04,-17.88 -22.04,-96.49zm889.45 17.79c16.92,-56.32 23.03,-60.19 86.06,-65.97 126.26,33.09 -22.71,241.74 -86.06,65.97zm-701.09 -302.46c-3.55,149.82 -136.79,108.54 -145.5,34.93 -10.75,-91.01 83.82,-113.78 145.5,-34.93zm435.21 89.27c-174.05,24.14 -156.56,-120.09 -39.37,-140.4 80.41,36.11 72.44,76.55 39.37,140.4zm-1789.32 -320.57l0 1192.08c0,163.18 74.96,236.85 238.04,236.85l3041.6 0c164.17,0 235.34,-71.23 235.34,-236.85l0 -1192.08c0,-165.15 -77.34,-242.69 -235.34,-242.69l-3041.6 0c-160.7,0 -238.04,75.28 -238.04,242.69z"/>
  <path class="fil2" d="M32161.11 72353.63c-77.51,-6.21 -55.11,57.32 -54.81,-199.16l-0.01 -462.6c-0.73,-242.89 -17.63,-176.13 54.82,-182.31l0 844.07zm83.78 -156.88c26.38,-154.03 61.65,-323.55 144.92,-415.03 153.48,-20.12 178.01,19.57 209.82,149.31 19.59,79.87 62.95,191.94 53.66,266.31l-117.73 4.67 -11 154.31 -144.73 0.43 -13.18 -156.66 -121.76 -3.34zm-590.65 -220.19c0,-276.81 319.74,-277.45 319.74,0l-1.36 166.83 -76.49 11.04 -1.4 197.72 -160.78 2.97 0.05 -203.67 -77.9 -14.73 -1.86 -160.16zm703.19 -397.03c116.1,-80.23 220.87,-51.73 192.46,110.77 -39.97,45.65 -48.74,55.73 -137.22,49.97 -58.28,-48 -68.5,-65.39 -55.24,-160.74zm-639.47 -0.31c92.78,-63.7 126.41,-60.15 192.91,6.21 15.97,100.17 7.97,104.62 -51.81,156.17l-86.13 -2.5 -59.44 -41.17 4.47 -118.71zm-1147.52 -451.02c-192.17,58.52 -140.7,297.32 -140.7,510.29 0,213.52 0,427.02 0,640.52 0,204.62 -42.03,459.67 151.55,500.29 87.67,18.4 1762.69,5.28 1937.97,5.28 1527.46,0 1425.27,137.37 1425.27,-523.35 0,-213.51 0,-427.02 0,-640.52 0,-210.92 45.4,-453.42 -145.93,-497.52 -89.82,-20.71 -1761.12,-6.8 -1937.47,-6.8 -208.29,0 -1176.04,-23.09 -1290.69,11.81z"/>
  <path class="fil2" d="M26827.25 71506.32l0 850.45c-76.37,-12.87 -46.45,28.68 -57,-57.68l0.19 -715.69c4.04,-103.8 -17.31,-64.08 56.81,-77.08zm500.73 688.13l-120 5.07 -10.25 150.73 -158.44 5.59 -3.43 -155.31 -124.71 -4.59c20.53,-130.9 58.02,-415.71 200.53,-421.45 151.69,-6.12 182.47,222.37 216.3,419.96zm-1005.52 -57.77c-7.83,-149.93 -21.69,-297.48 87.61,-346.78 241.76,-109.07 232.9,202.64 227.95,353.49l-76.05 11.06 -1.31 199.32 -160.6 0.93 -0.09 -205.04 -77.51 -12.98zm700.97 -555.01c69.16,-68.06 126.64,-62.57 196.85,2.92l-4.33 108.12c-40.85,44 -50.77,54.18 -137.74,45.94l-59.7 -42.03 4.92 -114.95zm-639.46 114.66c-26.02,-181.64 99.11,-200.66 197.27,-113.46l-4.1 112.63c-69.61,68.08 -122.55,68.71 -193.17,0.83zm-1288.27 -342.51l0 1192.08c0,163.13 71.9,238.68 237.56,238.68l3046.05 0c159,0 230.47,-77.52 230.47,-238.68l0 -1192.08c0,-161.63 -72.7,-237.43 -234.92,-237.43l-3041.6 0c-162.31,0 -237.56,76 -237.56,237.43z"/>
  <path class="fil2" d="M32691.23 73450.29l59.82 -31.56c31.58,-9.91 53.26,-12.07 87.46,-14.95l8.96 529.92c8.69,122.74 37.44,-72.86 37.24,249.08 -0.06,98.1 32.5,243.81 -79.14,230.6 -109.34,-12.93 -51.21,-403.52 -51.11,-403.83 20.87,-63.65 39.63,-3.67 19.24,-117.11l-82.56 -26.24c-26.07,-69.51 -26.02,-345.47 0.09,-415.91zm-398.8 318.82c0,410.25 37.56,53.24 35.68,378.07 -0.68,117.32 40.04,341.46 -129.02,244.53 -22.67,-68.08 -11.58,-219.82 -11.43,-298.62 0.22,-115.11 8.92,-63.81 29.83,-127.57 60.91,-185.7 -48.95,-226.35 -62,-237.61 -86.41,-74.69 -53.83,-270.79 -27.55,-309.35 108.68,25.45 6.6,80.18 63.08,273.13 36.96,-37.08 38.11,-3.1 34.08,-149.72 -2.52,-91.52 -24.1,-107.91 45.14,-129.01 20.81,31.16 24.65,-51.35 22.45,129.22 -0.65,53.12 -1.49,99.34 4.23,152.18 95.24,-61.21 5.02,-175.68 62.26,-276.16 47.26,9.25 67.04,-14.53 49.52,212.58 -7.98,103.53 -49.17,100.16 -116.27,138.33zm-1229.47 -475.93l0 1192.08c0,155.26 69.17,236.4 228.99,236.4l2401.26 0c160.93,0 231.42,-76.11 231.42,-236.4l0 -1192.08c0,-183.28 -77.31,-239.72 -249.21,-239.72l-2383.47 0c-163.71,0 -228.99,79.92 -228.99,239.72z"/>
  <path class="fil2" d="M32180.86 8110.47c-13.85,-99.01 -15.85,-342.23 5.21,-430.47 40.98,-17.05 94.67,-36.22 148.65,-33.7 27.84,143.1 -1.96,358.28 7.54,510.51 1.99,31.8 80.19,192.2 30.47,475.17 -41,18.08 -76.47,18.67 -121.16,4.42 -18.11,-71.88 -9.65,-179.88 -10.17,-267.31 -0.3,-49.49 -5.36,-85.89 9.96,-127.81 18.65,-51.07 36.6,-11.99 15.35,-114.28l-85.85 -16.53zm-533.17 -454.8c70.22,103.54 -39.22,213.91 73.72,274.58l-0.97 -220.69c10.52,-87.61 -8.27,-29.78 33.97,-59.09 59.96,40.96 30.84,98.24 34.11,277.3 92.33,-53.42 31.48,-128.79 47.52,-218.62 15.98,-89.49 -0.38,-34.86 42.88,-55.83 16.5,22.38 27.65,-33.69 26.79,128.69 -1.34,254.86 -98.06,160.61 -118.16,249.23 -31.89,140.57 91.01,289.62 26.96,611.64l-118.94 3.85 -13.31 -366.37c0.16,-1.99 64.51,-138.75 39.77,-249.12 -12.41,-55.32 -87.44,-60.54 -109.34,-102.3 -8.29,-56.53 -9.64,-90.25 -10.24,-147.06 -1.77,-166.12 10.97,-111.69 45.24,-126.21zm-776 -122.6l0 1245.46c0,173.25 64.73,249.63 242.39,249.63l1849.86 0c155.45,0 234.24,-73.71 234.24,-231.85l0 -1245.46c0,-174.16 -60.54,-252.45 -234.24,-252.45l-1849.86 0c-163.71,0 -242.39,78.07 -242.39,234.67z"/>
  <path class="fil2" d="M26685.09 8456.89c-17.87,-20.98 -25.01,25.41 -24.7,-104.81l2.96 -711.26c8.48,-38.66 4.64,-14.8 21.74,-35.88 46.26,25.03 31.3,2.84 31.86,86.98l0.52 696.89c-3.71,87.98 6.19,48.04 -32.38,68.08zm114.09 -165.14c26.18,-129.38 48.09,-419.1 206.09,-419.33 148.45,-0.22 192.16,280.48 211.12,422.96l-127.02 3.3 -2.39 155.05 -157.55 1.39 -2.08 -152.68 -128.17 -10.69zm-589.72 -82.59c0,-153.14 -19.77,-333.46 155.48,-337.02 180.62,-3.67 183.21,210.52 158.66,371.91 -84.02,3.08 -73.34,-42.37 -75.2,210.09l-158.25 1.03c-2.67,-365.3 -31.39,-126.48 -80.69,-246.01zm742.26 -376.69c-64.92,-70.44 -69.44,-118.86 0.86,-193.37l108.33 2.43 49.13 50.63 -3.04 92.01 -43.05 56.21 -112.23 -7.91zm-640.17 -0.22c-80.93,-89.89 -62.81,-215.03 110.14,-191.26 84.82,102.54 58.35,226.17 -110.14,191.26zm-550.54 -548.28l0 1601.31c0,162.9 70.78,246.47 230.38,246.47l1438.53 0c171.13,0 239.08,-75.59 239.08,-246.47l0 -1601.31c0,-164.21 -72.81,-238.68 -236.86,-238.68l-1436.31 0c-169.26,0 -234.82,77.34 -234.82,238.68z"/>
  <path class="fil3" d="M29657.55 1965.37c-18.84,250.79 -9.31,527.13 -8.97,781.59 0,119.91 34.73,134.24 111.01,180.99 66.68,40.86 127.9,74.12 190.53,112.34l749.46 442.57c106.78,63.76 271.45,201.12 415.89,187.1 101.98,-99.44 70.43,-168.92 72.66,-335.87 1.65,-123.48 15.29,-311.81 3.04,-427.91 -17.81,-168.73 -271.36,-274.72 -467.54,-391.5 -186.12,-110.8 -345.48,-205.37 -522.67,-313.69 -161.21,-98.55 -457.3,-325.99 -543.41,-235.62z"/>
  <path class="fil3" d="M27831.81 2942.67c0,852.04 -36.43,851.58 483.38,545.5l949.89 -561.88c93.45,-55.19 108.57,-65.3 108.57,-197.14l-4.88 -760.89 -51.02 -34.4c-75.88,-23.4 -1042.57,596.79 -1182.58,679.97 -137.23,81.52 -303.36,133.41 -303.36,328.84z"/>
  <path class="fil3" d="M27005.25 4254.38c589.76,0 561.6,58.58 716.19,-222.46 60.55,-110.09 21.14,-266.49 1.34,-397.64 -88.11,-583.51 -66.58,-720.94 -245.72,-468.54 -130.94,184.5 -259,362.45 -390.41,552.46 -124.88,180.56 -449.17,536.18 -81.4,536.18z"/>
  <path class="fil3" d="M31558.75 4254.38c201.53,0 570.84,41.67 621.04,-66.25 27.19,-143.35 -77.63,-235.37 -138.53,-322.24l-490.51 -701.05c-47.92,-67.86 -51.68,-109.26 -135.03,-114.6 -44.52,81.5 -105.89,538.63 -122.81,674.67 -18.72,150.43 -31.43,221.89 40.63,348.85 62.59,110.28 76.05,180.62 225.21,180.62z"/>
  <path class="fil4" d="M26799.18 8291.75l128.17 10.69 2.08 152.68 157.55 -1.39 2.39 -155.05 127.02 -3.3c-18.96,-142.48 -62.67,-423.18 -211.12,-422.96 -158,0.23 -179.91,289.95 -206.09,419.33z"/>
  <path class="fil4" d="M27327.98 72194.45c-33.83,-197.59 -64.61,-426.08 -216.3,-419.96 -142.51,5.74 -180,290.55 -200.53,421.45l124.71 4.59 3.43 155.31 158.44 -5.59 10.25 -150.73 120 -5.07z"/>
  <path class="fil5" d="M32244.89 72196.75l121.76 3.34 13.18 156.66 144.73 -0.43 11 -154.31 117.73 -4.67c9.29,-74.37 -34.07,-186.44 -53.66,-266.31 -31.81,-129.74 -56.34,-169.43 -209.82,-149.31 -83.27,91.48 -118.54,261 -144.92,415.03z"/>
  <path class="fil6" d="M32292.43 73769.11c67.1,-38.17 108.29,-34.8 116.27,-138.33 17.52,-227.11 -2.26,-203.33 -49.52,-212.58 -57.24,100.48 32.98,214.95 -62.26,276.16 -5.72,-52.84 -4.88,-99.06 -4.23,-152.18 2.2,-180.57 -1.64,-98.06 -22.45,-129.22 -69.24,21.1 -47.66,37.49 -45.14,129.01 4.03,146.62 2.88,112.64 -34.08,149.72 -56.48,-192.95 45.6,-247.68 -63.08,-273.13 -26.28,38.56 -58.86,234.66 27.55,309.35 13.05,11.26 122.91,51.91 62,237.61 -20.91,63.76 -29.61,12.46 -29.83,127.57 -0.15,78.8 -11.24,230.54 11.43,298.62 169.06,96.93 128.34,-127.21 129.02,-244.53 1.88,-324.83 -35.68,32.18 -35.68,-378.07z"/>
  <path class="fil7" d="M29362.42 78327.09c-3.24,-86.44 10.84,-63.66 -44.84,-85.97 -71.2,92.82 31.01,206.76 -67.71,277.63 -11.71,-85.27 14.89,-206.67 -21.2,-277.33l-35.6 -0.14c-35.38,69.41 -11.13,194.44 -20.39,280.93 -113.55,-72.65 20.43,-233.84 -86.34,-279.17 -14.79,16.57 -111.22,288.99 91.5,343.62 0,379.25 -38.86,128.79 -37.97,346.33 0.37,89.73 -41.12,307.78 70.94,306.57 110.09,-1.17 68.57,-216.62 68.93,-306.66 0.81,-202.21 -36,17.66 -36,-343.73 121.91,-42.34 124.84,-97.18 118.68,-262.08z"/>
  <path class="fil8" d="M32266.71 8127c21.25,102.29 3.3,63.21 -15.35,114.28 -15.32,41.92 -10.26,78.32 -9.96,127.81 0.52,87.43 -7.94,195.43 10.17,267.31 44.69,14.25 80.16,13.66 121.16,-4.42 49.72,-282.97 -28.48,-443.37 -30.47,-475.17 -9.5,-152.23 20.3,-367.41 -7.54,-510.51 -53.98,-2.52 -107.67,16.65 -148.65,33.7 -21.06,88.24 -19.06,331.46 -5.21,430.47l85.85 16.53z"/>
  <path class="fil5" d="M26209.46 8209.16c49.3,119.53 78.02,-119.29 80.69,246.01l158.25 -1.03c1.86,-252.46 -8.82,-207.01 75.2,-210.09 24.55,-161.39 21.96,-375.58 -158.66,-371.91 -175.25,3.56 -155.48,183.88 -155.48,337.02z"/>
  <path class="fil8" d="M29639.24 78704.35l91.13 11.02c1.4,61.28 -125,581.49 64.55,521.14 76.05,-24.21 38.25,-390.07 38.15,-390.46 -21.75,-84.85 -35.39,30.54 -33.81,-179.52 1.06,-142.19 3.36,-290.66 -3.94,-440.23l-164.83 40.81 8.75 437.24z"/>
  <path class="fil7" d="M31836.04 7709.15c-16.04,89.83 44.81,165.2 -47.52,218.62 -3.27,-179.06 25.85,-236.34 -34.11,-277.3 -42.24,29.31 -23.45,-28.52 -33.97,59.09l0.97 220.69c-112.94,-60.67 -3.5,-171.04 -73.72,-274.58 -34.27,14.52 -47.01,-39.91 -45.24,126.21 0.6,56.81 1.95,90.53 10.24,147.06 21.9,41.76 96.93,46.98 109.34,102.3 24.74,110.37 -39.61,247.13 -39.77,249.12l13.31 366.37 118.94 -3.85c64.05,-322.02 -58.85,-471.07 -26.96,-611.64 20.1,-88.62 116.82,5.63 118.16,-249.23 0.86,-162.38 -10.29,-106.31 -26.79,-128.69 -43.26,20.97 -26.9,-33.66 -42.88,55.83z"/>
  <path class="fil5" d="M26322.46 72136.68l77.51 12.98 0.09 205.04 160.6 -0.93 1.31 -199.32 76.05 -11.06c4.95,-150.85 13.81,-462.56 -227.95,-353.49 -109.3,49.3 -95.44,196.85 -87.61,346.78z"/>
  <path class="fil5" d="M32691.23 73450.29c-26.11,70.44 -26.16,346.4 -0.09,415.91l82.56 26.24c20.39,113.44 1.63,53.46 -19.24,117.11 -0.1,0.31 -58.23,390.9 51.11,403.83 111.64,13.21 79.08,-132.5 79.14,-230.6 0.2,-321.94 -28.55,-126.34 -37.24,-249.08l-8.96 -529.92c-34.2,2.88 -55.88,5.04 -87.46,14.95l-59.82 31.56z"/>
  <path class="fil5" d="M31654.24 71976.56l1.86 160.16 77.9 14.73 -0.05 203.67 160.78 -2.97 1.4 -197.72 76.49 -11.04 1.36 -166.83c0,-277.45 -319.74,-276.81 -319.74,0z"/>
  <path class="fil9" d="M26689.98 73933.7l86.86 12.06 1.88 106.52 111.03 -2.82 2.99 -105.13 88.5 -5.01c-12.58,-104.21 -37.49,-216.52 -96.6,-289.66l-92.9 -2.23c-59.75,58.27 -92.94,189.39 -101.76,286.27z"/>
  <path class="fil9" d="M26260.97 73809.15c0,78.61 -7.54,66.64 22.04,96.49l36.67 144.39 110.94 4.99 14.55 -130.86c6.64,13.3 46.11,-8.18 46.11,-132.79 0,-201.77 -230.31,-213.97 -230.31,17.78z"/>
  <path class="fil10" d="M27157.43 74191.08c27.63,-100.41 -62.32,-99.56 25.69,-167.78l45.96 181.35 201.12 13.82c21.06,79.78 18.32,148.54 90.88,166.31 7.22,-15.21 35.53,18.02 -1.64,-109.58 -4.68,-16.09 -10.62,-40.35 -15.29,-54.54 -1.8,-5.48 -6.72,-21.45 -8.87,-26.44 -17.71,-41.22 -12.67,-23.08 -21.24,-36.24l-130.77 -14.22 -44.51 -213.96c-222.48,-18.06 -273.63,233.59 -141.33,261.28z"/>
  <path class="fil6" d="M26827.25 71506.32c-74.12,13 -52.77,-26.72 -56.81,77.08l-0.19 715.69c10.55,86.36 -19.37,44.81 57,57.68l0 -850.45z"/>
  <path class="fil6" d="M32161.11 72353.63l0 -844.07c-72.45,6.18 -55.55,-60.58 -54.82,182.31l0.01 462.6c-0.3,256.48 -22.7,192.95 54.81,199.16z"/>
  <path class="fil6" d="M26685.09 8456.89c38.57,-20.04 28.67,19.9 32.38,-68.08l-0.52 -696.89c-0.56,-84.14 14.4,-61.95 -31.86,-86.98 -17.1,21.08 -13.26,-2.78 -21.74,35.88l-2.96 711.26c-0.31,130.22 6.83,83.83 24.7,104.81z"/>
  <path class="fil5" d="M26383.97 71696.33c70.62,67.88 123.56,67.25 193.17,-0.83l4.1 -112.63c-98.16,-87.2 -223.29,-68.18 -197.27,113.46z"/>
  <path class="fil5" d="M31717.96 71579.22l-4.47 118.71 59.44 41.17 86.13 2.5c59.78,-51.55 67.78,-56 51.81,-156.17 -66.5,-66.36 -100.13,-69.91 -192.91,-6.21z"/>
  <path class="fil5" d="M27023.43 71581.67l-4.92 114.95 59.7 42.03c86.97,8.24 96.89,-1.94 137.74,-45.94l4.33 -108.12c-70.21,-65.49 -127.69,-70.98 -196.85,-2.92z"/>
  <path class="fil5" d="M26951.72 7832.47l112.23 7.91 43.05 -56.21 3.04 -92.01 -49.13 -50.63 -108.33 -2.43c-70.3,74.51 -65.78,122.93 -0.86,193.37z"/>
  <path class="fil5" d="M32357.43 71579.53c-13.26,95.35 -3.04,112.74 55.24,160.74 88.48,5.76 97.25,-4.32 137.22,-49.97 28.41,-162.5 -76.36,-191 -192.46,-110.77z"/>
  <path class="fil5" d="M26311.55 7832.25c168.49,34.91 194.96,-88.72 110.14,-191.26 -172.95,-23.77 -191.07,101.37 -110.14,191.26z"/>
  <path class="fil11" d="M27379.4 74328.31l-9.04 -52.45c-0.59,-7.81 -6.53,-7.9 -14.58,-14.28l-34.73 64.86c-44.08,125.49 -182.76,109.15 -245.79,-1.32 -17.04,-111.29 31.68,-89.32 -5.22,-171.95l-49.45 56.04c-33.36,317.33 299.59,328.89 358.81,119.1z"/>
  <path class="fil12" d="M26613.94 74057.73c20.72,-26.65 25.1,52.29 23.28,-141.75l1.4 -392.72c-4.82,-68.18 -9.47,-51.73 -24.68,-72.22 -51.83,35.41 -28.93,169.32 -28.93,304.73 0,53.39 0.34,106.89 -0.09,160.26 -0.56,70.78 -19.47,110.78 29.02,141.7z"/>
  <path class="fil10" d="M26449.33 73524.48c-61.68,-78.85 -156.25,-56.08 -145.5,34.93 8.71,73.61 141.95,114.89 145.5,-34.93z"/>
  <path class="fil10" d="M26884.54 73613.75c33.07,-63.85 41.04,-104.29 -39.37,-140.4 -117.19,20.31 -134.68,164.54 39.37,140.4z"/>
  <path class="fil10" d="M27150.42 73826.94c63.35,175.77 212.32,-32.88 86.06,-65.97 -63.03,5.78 -69.14,9.65 -86.06,65.97z"/>
  <path class="fil13" d="M27321.05 74326.44l34.73 -64.86c8.05,6.38 13.99,6.47 14.58,14.28l9.04 52.45c2.26,-4.01 25.92,15.57 16.28,-38.73 -11.1,-62.48 7.59,-13.77 -34.69,-45.15 -45.96,39.11 -26.7,5.01 -39.94,82.01z"/>
 </g>
</svg>
