<?xml version="1.0" encoding="UTF-8"?>
<svg id="Camada_2" data-name="Camada 2" xmlns="http://www.w3.org/2000/svg" xmlns:xlink="http://www.w3.org/1999/xlink" viewBox="0 0 425.07 74.32">
  <defs>
    <style>
      .cls-1 {
        fill: #162260;
      }

      .cls-1, .cls-2, .cls-3, .cls-4 {
        stroke-width: 0px;
      }

      .cls-2 {
        fill: #e41147;
      }

      .cls-3 {
        fill: url(#Gradiente_sem_nome_6);
      }

      .cls-4 {
        fill: #ed4736;
      }
    </style>
    <linearGradient id="Gradiente_sem_nome_6" data-name="Gradiente sem nome 6" x1="308.88" y1="36.54" x2="366.5" y2="36.54" gradientUnits="userSpaceOnUse">
      <stop offset="0" stop-color="#ed4736"/>
      <stop offset="1" stop-color="#e41147"/>
    </linearGradient>
  </defs>
  <g id="Camada_1-2" data-name="Camada 1">
    <g>
      <path class="cls-1" d="M190.3,28.81c4.91,5.05,7.37,11.36,7.37,18.91s-2.42,13.93-7.27,18.91c-4.84,4.98-11.22,7.47-19.12,7.47s-14.16-2.49-18.97-7.47c-4.81-4.98-7.22-11.29-7.22-18.91s2.42-13.95,7.27-18.97c4.84-5.02,11.15-7.52,18.91-7.52s14.1,2.53,19.02,7.58ZM159.99,35.87c-2.85,3.23-4.28,7.18-4.28,11.85s1.41,8.59,4.23,11.75c2.82,3.16,6.6,4.74,11.34,4.74s8.54-1.58,11.39-4.74c2.85-3.16,4.28-7.08,4.28-11.75s-1.48-8.54-4.43-11.8c-2.95-3.26-6.7-4.9-11.24-4.9s-8.43,1.61-11.29,4.84Z"/>
      <path class="cls-1" d="M246.78,28.81c4.91,5.05,7.37,11.36,7.37,18.91s-2.42,13.93-7.27,18.91c-4.84,4.98-11.22,7.47-19.12,7.47s-14.16-2.49-18.97-7.47c-4.81-4.98-7.22-11.29-7.22-18.91s2.42-13.95,7.27-18.97c4.84-5.02,11.15-7.52,18.91-7.52s14.1,2.53,19.02,7.58ZM216.48,35.87c-2.85,3.23-4.28,7.18-4.28,11.85s1.41,8.59,4.23,11.75c2.82,3.16,6.6,4.74,11.34,4.74s8.54-1.58,11.39-4.74c2.85-3.16,4.28-7.08,4.28-11.75s-1.48-8.54-4.43-11.8c-2.96-3.26-6.7-4.9-11.24-4.9s-8.44,1.61-11.29,4.84Z"/>
      <path class="cls-3" d="M316.21,21.44c-4.09,0-6.81-4.21-5.16-7.95.36-.82.77-1.61,1.24-2.36,1.79-2.89,4.11-5.1,6.96-6.65,2.85-1.55,5.88-2.68,9.07-3.4,3.2-.72,6.61-1.08,10.26-1.08,2.82,0,5.51.22,8.09.67s5.08,1.22,7.52,2.32c2.44,1.1,4.55,2.46,6.34,4.07,1.79,1.61,3.23,3.69,4.33,6.24,1.1,2.54,1.65,5.43,1.65,8.66,0,14.57-9.52,21.85-28.55,21.85-2.06,0-4.02.15-5.88.46-1.86.31-3.75.82-5.67,1.55-1.92.72-3.47,1.86-4.64,3.4s-1.75,3.42-1.75,5.62v7.42h41.08c2.99,0,5.41,2.42,5.41,5.41h0c0,2.99-2.42,5.41-5.41,5.41h-46.8c-2.99,0-5.41-2.42-5.41-5.41v-12.83c0-3.92.82-7.32,2.47-10.2,1.65-2.89,3.92-5.1,6.8-6.65,2.89-1.55,5.94-2.66,9.17-3.35,3.23-.69,6.73-1.03,10.51-1.03,1.86,0,3.69-.17,5.51-.52,1.82-.34,3.66-.89,5.51-1.65,1.86-.76,3.37-1.94,4.54-3.56,1.17-1.61,1.75-3.52,1.75-5.72,0-7.7-5.53-11.75-16.59-12.16-3.02,0-5.81.34-8.35,1.03-2.54.69-4.74,1.92-6.6,3.71-.96.92-1.68,1.97-2.16,3.13-.89,2.14-2.93,3.57-5.25,3.57h0Z"/>
      <path class="cls-1" d="M133.81,28.81c-4.91-5.05-11.25-7.58-19.02-7.58-6.09,0-11.27,1.55-15.56,4.63V6.34c0-2.93-2.38-5.31-5.31-5.31h0c-2.93,0-5.31,2.38-5.31,5.31v41.38c0,7.63,2.4,13.93,7.22,18.91,4.81,4.98,11.13,7.47,18.97,7.47s14.28-2.49,19.12-7.47c4.84-4.98,7.27-11.29,7.27-18.91s-2.46-13.86-7.37-18.91ZM126.19,59.47c-2.85,3.16-6.65,4.74-11.39,4.74s-8.52-1.58-11.34-4.74c-2.82-3.16-4.23-7.08-4.23-11.75s1.43-8.62,4.28-11.85c2.85-3.23,6.61-4.84,11.29-4.84s8.28,1.63,11.24,4.9c2.95,3.26,4.43,7.2,4.43,11.8s-1.43,8.59-4.28,11.75Z"/>
      <path class="cls-1" d="M417.7,28.81c-4.91-5.05-11.25-7.58-19.02-7.58-6.09,0-11.27,1.55-15.56,4.63V6.34c0-2.93-2.38-5.31-5.31-5.31h0c-2.93,0-5.31,2.38-5.31,5.31v41.38c0,7.63,2.4,13.93,7.22,18.91,4.81,4.98,11.13,7.47,18.97,7.47s14.28-2.49,19.12-7.47c4.84-4.98,7.27-11.29,7.27-18.91s-2.46-13.86-7.37-18.91ZM410.07,59.47c-2.85,3.16-6.65,4.74-11.39,4.74s-8.52-1.58-11.34-4.74c-2.82-3.16-4.23-7.08-4.23-11.75s1.43-8.62,4.28-11.85c2.85-3.23,6.61-4.84,11.29-4.84s8.28,1.63,11.24,4.9c2.95,3.26,4.43,7.2,4.43,11.8s-1.43,8.59-4.28,11.75Z"/>
      <path class="cls-1" d="M281.93,46.71l17.73-18.36c2.9-3,.77-8.01-3.4-8.01-1.28,0-2.51.52-3.4,1.44l-20.88,21.62V6.39c0-2.96-2.4-5.36-5.36-5.36h0c-2.96,0-5.36,2.4-5.36,5.36v61.33c0,2.96,2.4,5.36,5.36,5.36h0c2.96,0,5.36-2.4,5.36-5.36v-17.71l20.88,21.62c.89.92,2.12,1.44,3.4,1.44,4.17,0,6.29-5.01,3.4-8.01l-17.73-18.36Z"/>
      <g>
        <polygon class="cls-4" points="34.21 40.1 74.32 0 0 19.91 34.21 40.1"/>
        <polygon class="cls-2" points="54.4 74.32 74.32 0 34.21 40.1 54.4 74.32"/>
      </g>
    </g>
  </g>
</svg>