<svg width="142" height="75" viewBox="0 0 142 75" fill="none" xmlns="http://www.w3.org/2000/svg">
<g id="Group 281">
<g id="ticket">
<g id="Group">
<g id="Group_2">
<path id="Vector" d="M135.82 75H43.2921V72.9127C43.2921 71.5123 42.1533 70.3735 40.7499 70.3735C39.3465 70.3735 38.2106 71.5123 38.2106 72.9127V75H5.46801C2.45302 75 0 72.547 0 69.532V46.4468H0.892008C5.82481 46.4468 9.83885 42.4328 9.83885 37.5C9.83885 32.5672 5.82481 28.5532 0.892008 28.5532H0V5.46801C0 2.45302 2.45302 0 5.46801 0H38.2077V2.0873C38.2077 3.48775 39.3465 4.62952 40.7469 4.62952C42.1474 4.62952 43.2891 3.49072 43.2891 2.0873V0H135.82C138.835 0 141.288 2.45302 141.288 5.46801V69.529C141.288 72.547 138.835 75 135.82 75ZM45.0761 73.216H135.82C137.851 73.216 139.504 71.5628 139.504 69.532V5.46801C139.504 3.43721 137.851 1.78402 135.82 1.78402H45.0761V2.0873C45.0761 3.83266 44.0384 5.34016 42.5458 6.02105C44.0384 6.70493 45.0761 8.20944 45.0761 9.95481V17.8223C45.0761 19.5677 44.0384 21.0752 42.5458 21.7561C44.0384 22.4399 45.0761 23.9445 45.0761 25.6898V33.5573C45.0761 35.3027 44.0384 36.8102 42.5458 37.4911C44.0384 38.175 45.0761 39.6795 45.0761 41.4248V49.2953C45.0761 51.0407 44.0384 52.5482 42.5458 53.2291C44.0384 53.9129 45.0761 55.4175 45.0761 57.1628V65.0333C45.0761 66.7787 44.0384 68.2862 42.5458 68.9671C44.0384 69.6509 45.0761 71.1554 45.0761 72.9008V73.216ZM1.78402 48.1922V69.529C1.78402 71.5598 3.4372 73.213 5.46801 73.213H36.4236V72.9097C36.4236 71.1644 37.4613 69.6569 38.954 68.976C37.4613 68.2921 36.4236 66.7876 36.4236 65.0422V57.1717C36.4236 55.4264 37.4613 53.9189 38.954 53.238C37.4613 52.5541 36.4236 51.0496 36.4236 49.3042V41.4338C36.4236 39.6884 37.4613 38.1809 38.954 37.5C37.4613 36.8161 36.4236 35.3116 36.4236 33.5662V25.6958C36.4236 23.9504 37.4613 22.4429 38.954 21.762C37.4613 21.0781 36.4236 19.5736 36.4236 17.8283V9.96075C36.4236 8.21539 37.4613 6.7079 38.954 6.027C37.4613 5.34312 36.4236 3.83861 36.4236 2.09325V1.78996H5.46801C3.4372 1.78996 1.78402 3.44315 1.78402 5.47395V26.8108C7.28473 27.2657 11.6229 31.8893 11.6229 37.503C11.6229 43.1167 7.28473 47.7373 1.78402 48.1922ZM40.7499 54.6325C39.3494 54.6325 38.2106 55.7713 38.2106 57.1717V65.0422C38.2106 66.4427 39.3494 67.5815 40.7499 67.5815C42.1503 67.5815 43.2921 66.4427 43.2921 65.0422V57.1717C43.2921 55.7713 42.1503 54.6325 40.7499 54.6325ZM40.7499 38.8945C39.3494 38.8945 38.2106 40.0333 38.2106 41.4338V49.3042C38.2106 50.7047 39.3494 51.8435 40.7499 51.8435C42.1503 51.8435 43.2921 50.7047 43.2921 49.3042V41.4338C43.2921 40.0333 42.1503 38.8945 40.7499 38.8945ZM40.7499 23.1565C39.3494 23.1565 38.2106 24.2953 38.2106 25.6987V33.5662C38.2106 34.9667 39.3494 36.1055 40.7499 36.1055C42.1503 36.1055 43.2921 34.9667 43.2921 33.5662V25.6958C43.2921 24.2953 42.1503 23.1565 40.7499 23.1565ZM40.7499 7.41853C39.3494 7.41853 38.2106 8.55733 38.2106 9.96075V17.8283C38.2106 19.2287 39.3494 20.3675 40.7499 20.3675C42.1503 20.3675 43.2921 19.2287 43.2921 17.8283V9.96075C43.2921 8.55733 42.1503 7.41853 40.7499 7.41853Z" fill="#EE492D"/>
</g>
</g>
<g id="Group_3">
<path id="Vector_2" d="M88.0142 64.5203H85.5969L89.8042 46.5612V41.9584C84.3332 41.4767 78.1754 40.7482 71.4764 39.7879L68.2563 47.4621L64.7953 48.6931L66.9628 39.1159C65.3959 38.875 63.8319 38.6312 62.3006 38.3815L56.8594 37.5013L62.3006 36.6212C63.8319 36.3744 65.3959 36.1276 66.9628 35.8868L64.7953 26.3096L68.2563 27.5406L71.4764 35.2148C78.1754 34.2544 84.3332 33.526 89.8042 33.0443V28.4415L85.5969 10.4824H88.0142C89.2036 10.4824 90.3067 11.1752 90.8211 12.2486L100.479 32.3842C114.691 31.953 119.752 33.969 121.488 35.75C122.267 36.5469 122.345 37.2397 122.342 37.5013C122.345 37.763 122.267 38.4558 121.488 39.2526C119.752 41.0337 114.691 43.0496 100.479 42.6185L90.8211 62.7541C90.3067 63.8245 89.2066 64.5203 88.0142 64.5203ZM87.8477 62.7362H88.0142C88.5227 62.7362 88.9925 62.4389 89.2125 61.981L99.3725 40.7958L99.9552 40.8166C118.554 41.4559 120.415 37.8611 120.549 37.5013C120.415 37.1445 118.554 33.5468 99.9552 34.186L99.3725 34.2069L89.2125 13.0217C88.9925 12.5638 88.5227 12.2664 88.0142 12.2664H87.8477L91.5882 28.2363V34.6856L90.7705 34.754C84.9517 35.2475 78.3151 36.0295 71.0482 37.0821L70.3644 37.1802L67.5813 30.5437L69.1245 37.3646L68.2176 37.5013L69.1245 37.6381L67.5813 44.459L70.3644 37.8225L71.0482 37.9206C78.3151 38.9732 84.9487 39.7581 90.7705 40.2487L91.5882 40.3171V46.7663L87.8477 62.7362Z" fill="#EE492D"/>
</g>
</g>
</g>
</svg>
